<?xml version="1.0" encoding="utf-8"?>
<svg viewBox="0.1485 0.655 14.1111 9.3225" xmlns="http://www.w3.org/2000/svg">
  <path d="M 6.577 1.759 C 6.622 1.628 6.581 1.483 6.474 1.397 L 6.359 1.312 C 5.956 1.044 5.499 0.869 5.021 0.802 C 4.155 0.686 3.052 0.925 1.98 2.167 L 1.3 2.167 C 1.214 2.167 1.133 2.201 1.072 2.262 L 0.243 3.101 C 0.117 3.228 0.117 3.434 0.243 3.561 L 1.9 5.243 C 2.026 5.369 2.23 5.369 2.357 5.243 L 3.186 4.401 C 3.246 4.341 3.28 4.257 3.28 4.172 L 3.28 3.755 L 8.686 9.538 C 8.803 9.699 9.033 9.716 9.173 9.575 L 10.14 8.598 C 10.261 8.475 10.266 8.278 10.151 8.149 L 4.267 2.523 C 4.748 2.226 5.409 1.977 6.272 1.977 C 6.409 1.977 6.531 1.889 6.577 1.759 Z" style="fill: rgb(0, 0, 0);"/>
  <path d="M 10.555 8.947 C 10.601 9.084 10.559 9.237 10.451 9.327 L 10.335 9.415 C 9.927 9.698 9.464 9.88 8.98 9.95 C 8.103 10.072 6.986 9.821 5.9 8.521 L 5.212 8.521 C 5.125 8.521 5.042 8.484 4.981 8.42 L 4.141 7.54 C 4.014 7.407 4.014 7.192 4.141 7.058 L 5.82 5.296 C 5.947 5.163 6.154 5.163 6.282 5.296 L 7.121 6.178 C 7.182 6.242 7.216 6.328 7.216 6.419 L 7.216 6.856 L 12.691 0.794 C 12.809 0.626 13.043 0.607 13.185 0.755 L 14.164 1.779 C 14.287 1.908 14.292 2.115 14.175 2.25 L 8.216 8.146 C 8.703 8.458 9.373 8.719 10.247 8.719 C 10.386 8.719 10.509 8.811 10.555 8.947 Z" style="fill: rgb(0, 0, 0); transform-origin: 9.15267px 5.31624px;" transform="matrix(-1, 0, 0, -1, 0, 0)"/>
</svg>